<?xml version="1.0" encoding="utf-8"?>
<!-- Generator: Adobe Illustrator 17.1.0, SVG Export Plug-In . SVG Version: 6.00 Build 0)  -->
<!DOCTYPE svg PUBLIC "-//W3C//DTD SVG 1.1//EN" "http://www.w3.org/Graphics/SVG/1.1/DTD/svg11.dtd">
<svg version="1.1" id="Layer_1" xmlns="http://www.w3.org/2000/svg" xmlns:xlink="http://www.w3.org/1999/xlink" x="0px" y="0px"
	 width="2048px" height="2048px" viewBox="0 0 2048 2048" enable-background="new 0 0 2048 2048" xml:space="preserve">
<path fill="#010101" d="M1024,906.5l173.1,148.3l-83.3,97.2L896,965.3v-384h128V906.5z M1664,896c0,353.5-286.5,640-640,640
	c-353.5,0-640-286.5-640-640s286.5-640,640-640C1377.5,256,1664,542.5,1664,896z M1536,896c0-282.8-229.2-512-512-512
	S512,613.2,512,896s229.2,512,512,512S1536,1178.8,1536,896z M440.3,502.3c25.2-37.3,54.1-72.3,85.9-104.1
	c31.8-31.8,66.9-60.8,104.1-85.9C668,286.8,708.2,265,750,247.4c27.7-11.7,56-21.6,84.7-29.6C787.7,162.8,717.9,128,640,128
	c-141.4,0-256,114.6-256,256c0,51.9,15.4,100.1,41.9,140.4C430.6,517,435.4,509.6,440.3,502.3z M1298,247.4
	c41.7,17.6,82,39.5,119.6,64.9c37.3,25.2,72.3,54.1,104.1,85.9c31.8,31.8,60.8,66.9,85.9,104.1c4.9,7.3,9.7,14.6,14.3,22.1
	c26.5-40.3,41.9-88.6,41.9-140.4c0-141.4-114.6-256-256-256c-77.9,0-147.7,34.8-194.7,89.7C1242.1,225.8,1270.3,235.6,1298,247.4z"
	/>
</svg>
