<?xml version="1.0" encoding="utf-8"?>
<!-- Generator: Adobe Illustrator 17.1.0, SVG Export Plug-In . SVG Version: 6.00 Build 0)  -->
<!DOCTYPE svg PUBLIC "-//W3C//DTD SVG 1.1//EN" "http://www.w3.org/Graphics/SVG/1.1/DTD/svg11.dtd">
<svg version="1.1" id="Layer_1" xmlns="http://www.w3.org/2000/svg" xmlns:xlink="http://www.w3.org/1999/xlink" x="0px" y="0px"
	 width="2048px" height="2048px" viewBox="0 0 2048 2048" enable-background="new 0 0 2048 2048" xml:space="preserve">
<path d="M1572.9580078,692.7089844c-50.0664062,0-91.0419922,39.7324219-91.0419922,88.2559204v353.0254517
	c0,48.5233154,40.9755859,88.2557373,91.0419922,88.2557373c50.0517578,0,91.0419922-39.7324219,91.0419922-88.2557373V780.9649048
	C1664,732.4414062,1623.0097656,692.7089844,1572.9580078,692.7089844 M480.4541016,692.7089844
	c-50.0674133,0-91.0419922,39.7324219-91.0419922,88.2559204v353.0254517c0,48.5233154,40.9745789,88.2557373,91.0419922,88.2557373
	c50.0507812,0,91.0419922-39.7324219,91.0419922-88.2557373V780.9649048
	C571.4960938,732.4414062,530.5048828,692.7089844,480.4541016,692.7089844 M617.0166016,1402.0009766
	c0,73.1289062,61.1220703,132.3809814,136.5625,132.3809814h45.5214844v169.3623047
	c0,48.5233154,40.9755859,88.2557373,91.0429077,88.2557373c50.0507812,0,91.0401001-39.7324219,91.0401001-88.2557373V1534.381958
	h91.0428467v169.3623047c0,48.5233154,40.9766846,88.2557373,91.0421143,88.2557373
	c50.0527344,0,91.0419922-39.7324219,91.0419922-88.2557373V1534.381958h45.5214844
	c75.4257812,0,136.5644531-59.2520752,136.5644531-132.3809814v-630.711853H617.0166016V1402.0009766z M1195.3994141,330.8496094
	l57.6123047-107.262207c2.9394531-5.3846893,0.7568359-12.1073914-4.7929688-14.8652039
	c-5.5664062-2.8031921-12.4931641-0.7758942-15.3378906,4.6538086l-58.5097656,108.8959961
	c-45.8300781-17.1513977-95.6191406-26.5868835-147.6650391-26.5868835c-52.1084595,0-101.8505249,9.4354858-147.6806641,26.6322937
	l-58.4638672-108.9863129c-2.8896484-5.3847961-9.7705078-7.4985962-15.3379517-4.6542969
	c-5.5497437,2.8032074-7.7313843,9.4804077-4.7919922,14.8690948l57.6123047,107.3037109
	c-128.9257812,56.5805969-222.2705078,175.9501953-238.4598999,317.859375h814.3525391
	C1417.6689453,506.7998047,1324.3242188,387.4302063,1195.3994141,330.8496094 M844.6220703,624.3173828
	c-36.4599609,0-66.0253906-28.6552734-66.0253906-63.9921875c0-35.3363647,29.5654297-63.9960938,66.0253906-63.9960938
	c36.4443359,0,66.0078125,28.659729,66.0078125,63.9960938
	C910.6298828,595.6621094,881.0664062,624.3173828,844.6220703,624.3173828 M1208.7900391,624.3173828
	c-36.4609375,0-66.0234375-28.6552734-66.0234375-63.9921875c0-35.3363647,29.5625-63.9960938,66.0234375-63.9960938
	c36.4443359,0,66.0087891,28.659729,66.0087891,63.9960938
	C1274.7988281,595.6621094,1245.234375,624.3173828,1208.7900391,624.3173828"/>
</svg>
