<?xml version="1.0" encoding="utf-8"?>
<!-- Generator: Adobe Illustrator 17.1.0, SVG Export Plug-In . SVG Version: 6.00 Build 0)  -->
<!DOCTYPE svg PUBLIC "-//W3C//DTD SVG 1.1//EN" "http://www.w3.org/Graphics/SVG/1.1/DTD/svg11.dtd">
<svg version="1.1" id="Layer_1" xmlns="http://www.w3.org/2000/svg" xmlns:xlink="http://www.w3.org/1999/xlink" x="0px" y="0px"
	 width="2048px" height="2048px" viewBox="0 0 2048 2048" enable-background="new 0 0 2048 2048" xml:space="preserve">
<path d="M1514.5,1013c-2.1-210.5,171.7-311.5,179.4-316.5C1596.3,553.6,1444.2,534,1390,531.7c-129.4-13.1-252.6,76.2-318.3,76.2
	c-65.5,0-166.9-74.3-274.3-72.3c-141.1,2.1-271.2,82-343.8,208.4C307,998.4,416,1375.2,558.9,1581.6
	c69.9,100.9,153.1,214.4,262.4,210.3c105.2-4.2,145.1-68.1,272.3-68.1c127.3,0,163,68.1,274.4,66c113.3-2.1,185-102.9,254.4-204.2
	c80.2-117.2,113.2-230.6,115.1-236.4C1735.1,1348.1,1516.6,1264.4,1514.5,1013 M1305.2,395.2c58-70.4,97.2-168.1,86.5-265.5
	c-83.5,3.5-184.9,55.7-244.8,125.9c-53.8,62.3-100.9,161.7-88.3,257.2C1151.9,520.1,1247.1,465.4,1305.2,395.2"/>
</svg>
