<?xml version="1.0" encoding="utf-8"?>
<!-- Generator: Adobe Illustrator 17.1.0, SVG Export Plug-In . SVG Version: 6.00 Build 0)  -->
<!DOCTYPE svg PUBLIC "-//W3C//DTD SVG 1.1//EN" "http://www.w3.org/Graphics/SVG/1.1/DTD/svg11.dtd">
<svg version="1.1" id="Layer_1" xmlns="http://www.w3.org/2000/svg" xmlns:xlink="http://www.w3.org/1999/xlink" x="0px" y="0px"
	 width="2048px" height="2048px" viewBox="0 0 2048 2048" enable-background="new 0 0 2048 2048" xml:space="preserve">
<path fill="#010101" d="M959.9,1791.6c-131.7,0-260.6-65.7-341.1-169.1C542.8,1525.1,512,1400.9,512,1279V639
	c0-185.6,108.4-383,316.1-383c207.2,0,323.8,195.4,323.8,383v640c0,74.9-18,132.7-52,179.8c-35,48.4-85.9,76.2-139.6,76.2
	c-53.7,0-104.6-27.8-139.6-76.2c-34-47.1-52-104.9-52-179.8V895h128v384c0,36.1,10.6,128,63.7,128c53.1,0,63.7-91.9,63.7-128V639
	c0-175.2-101.5-255-195.8-255C734.4,384,640,462.9,640,639v640c0,262.9,165.9,382.6,320,382.6s320-119.7,320-382.6V639h128v640
	c0,119.3-29.4,240.7-101.9,337.2C1225.6,1723.3,1094.5,1791.6,959.9,1791.6z"/>
</svg>
