<?xml version="1.0" encoding="utf-8"?>
<!-- Generator: Adobe Illustrator 17.1.0, SVG Export Plug-In . SVG Version: 6.00 Build 0)  -->
<!DOCTYPE svg PUBLIC "-//W3C//DTD SVG 1.1//EN" "http://www.w3.org/Graphics/SVG/1.1/DTD/svg11.dtd">
<svg version="1.1" id="Layer_1" xmlns="http://www.w3.org/2000/svg" xmlns:xlink="http://www.w3.org/1999/xlink" x="0px" y="0px"
	 width="2048px" height="2048px" viewBox="0 0 2048 2048" enable-background="new 0 0 2048 2048" xml:space="preserve">
<path id="bookmark_1_" fill="#010101" d="M1735.1,386c-41.2,1.8-72.2,6-72.2,6c-109.2,12.6-229.8,40.7-345.7,81.1
	c-74.3,25.9-195.2,74.1-294.6,142.5C920.2,550.8,796.1,502.3,737,481c-78.2-28.2-214.1-71.4-354.4-88.9c0,0-75.9-9.2-126.6-7.7
	l0,1024c0,0,377.5,95.8,609.4,192.4v38.6c16,32,282,38,318,0V1594c234.2-100.3,607.3-185.6,608.6-185.6v-1024
	C1778.6,383.3,1756.4,384.8,1735.1,386z M1663.1,1290.6c-108.9,12.7-229.2,40.7-344.8,80.9c-74.3,25.9-195.2,74.1-294.6,142.5
	c-102.3-64.7-226.5-113.2-285.5-134.5c-78.2-28.2-213.9-71.4-354.1-88.9V456.9c239.8,32.1,535.3,148,640,247.4
	c53.1-55.5,146.6-108.2,256-151.1v475.1l128-128l128,128V477.3c43-9,85.7-16.1,127.1-21.1V1290.6z"/>
</svg>
