<?xml version="1.0" encoding="utf-8"?>
<!-- Generator: Adobe Illustrator 17.1.0, SVG Export Plug-In . SVG Version: 6.00 Build 0)  -->
<!DOCTYPE svg PUBLIC "-//W3C//DTD SVG 1.1//EN" "http://www.w3.org/Graphics/SVG/1.1/DTD/svg11.dtd">
<svg version="1.1" id="Layer_1" xmlns="http://www.w3.org/2000/svg" xmlns:xlink="http://www.w3.org/1999/xlink" x="0px" y="0px"
	 width="2048px" height="2048px" viewBox="0 0 2048 2048" enable-background="new 0 0 2048 2048" xml:space="preserve">
<path id="camera_2_" d="M1408,1152c0,139.6-116.4,256-256,256s-256-116.4-256-256s116.4-256,256-256S1408,1012.4,1408,1152z
	 M1785.7,632.2V1664H256V632.2h515.9L896,384h512l124.1,248.2H1785.7z M640,768H384v128h256V768z M1536,1152
	c0-212.1-171.9-384-384-384s-384,171.9-384,384s171.9,384,384,384S1536,1364.1,1536,1152z"/>
</svg>
