<?xml version="1.0" encoding="utf-8"?>
<!-- Generator: Adobe Illustrator 17.1.0, SVG Export Plug-In . SVG Version: 6.00 Build 0)  -->
<!DOCTYPE svg PUBLIC "-//W3C//DTD SVG 1.1//EN" "http://www.w3.org/Graphics/SVG/1.1/DTD/svg11.dtd">
<svg version="1.1" id="Layer_1" xmlns="http://www.w3.org/2000/svg" xmlns:xlink="http://www.w3.org/1999/xlink" x="0px" y="0px"
	 width="2048px" height="2048px" viewBox="0 0 2048 2048" enable-background="new 0 0 2048 2048" xml:space="preserve">
<path id="synch_1_" fill="#010101" d="M1655.8,1160.2c5.4-23.2,8.2-47.4,8.2-72.2c0-176.7-143.3-320-320-320
	c-34.9,0-68.5,5.6-99.9,15.9C1175.7,624,1016.9,512,832,512c-247.4,0-448,200.6-448,448c0,31.9,3.3,63,9.7,93
	c-81.8,42.7-137.7,128.4-137.7,227c0,141.4,114.6,256,256,256h1088c106,0,192-86,192-192C1792,1257.4,1734.6,1184.2,1655.8,1160.2z
	 M978.3,787.4c-103.1-69.6-243.1-42.3-312.6,60.8c-69.6,103.1-42.3,243.1,60.8,312.6c40,26.9,85.4,39.4,130.2,38.5l20.8,111.7
	c-73.1,5.5-148.5-12.7-214-56.8C508.8,1149.8,468,939.9,572.3,785.2c104.3-154.7,314.3-195.5,468.9-91.2
	c95.2,64.2,147.2,168.4,148.9,275.1l71.6,0.2l-137.1,204.2L988.9,968.4l88.6,0.3C1075.8,898.3,1041.1,829.8,978.3,787.4z"/>
</svg>
