<?xml version="1.0" encoding="utf-8"?>
<!-- Generator: Adobe Illustrator 17.1.0, SVG Export Plug-In . SVG Version: 6.00 Build 0)  -->
<!DOCTYPE svg PUBLIC "-//W3C//DTD SVG 1.1//EN" "http://www.w3.org/Graphics/SVG/1.1/DTD/svg11.dtd">
<svg version="1.1" id="Layer_1" xmlns="http://www.w3.org/2000/svg" xmlns:xlink="http://www.w3.org/1999/xlink" x="0px" y="0px"
	 width="2048px" height="2048px" viewBox="0 0 2048 2048" enable-background="new 0 0 2048 2048" xml:space="preserve">
<path id="download" fill="#010101" d="M1655.8,1160.2c5.4-23.2,8.2-47.4,8.2-72.2c0-176.7-143.3-320-320-320
	c-34.9,0-68.5,5.6-99.9,15.9C1175.7,624,1021.1,512,836.2,512C588.7,512,384,712.6,384,960c0,31.9,3.3,63,9.7,93
	c-81.8,42.7-137.7,128.4-137.7,227c0,141.4,114.6,256,256,256h1088c106,0,192-86,192-192C1792,1257.4,1734.6,1184.2,1655.8,1160.2z
	 M894.9,1431l-324.4-331.4h198.9V768.2h258.2v331.4h198.9L894.9,1431z"/>
</svg>
