<?xml version="1.0" encoding="utf-8"?>
<!-- Generator: Adobe Illustrator 17.1.0, SVG Export Plug-In . SVG Version: 6.00 Build 0)  -->
<!DOCTYPE svg PUBLIC "-//W3C//DTD SVG 1.1//EN" "http://www.w3.org/Graphics/SVG/1.1/DTD/svg11.dtd">
<svg version="1.1" id="Layer_1" xmlns="http://www.w3.org/2000/svg" xmlns:xlink="http://www.w3.org/1999/xlink" x="0px" y="0px"
	 width="2048px" height="2048px" viewBox="0 0 2048 2048" enable-background="new 0 0 2048 2048" xml:space="preserve">
<path id="cloud" fill="#010101" d="M1655.8,1167.2c5.4-23.2,8.2-47.4,8.2-72.2c0-176.7-143.3-327-320-327
	c-34.9,0-68.5,12.6-99.9,22.9C1175.7,631,1016.9,512,832,512c-247.4,0-448,207.6-448,455c0,31.9,3.3,63,9.7,93
	c-81.8,42.7-137.7,128.4-137.7,227c0,141.4,114.6,256,256,256h1088c106,0,192-86,192-192C1792,1264.4,1734.6,1191.2,1655.8,1167.2z"
	/>
</svg>
