<?xml version="1.0" encoding="utf-8"?>
<!-- Generator: Adobe Illustrator 17.1.0, SVG Export Plug-In . SVG Version: 6.00 Build 0)  -->
<!DOCTYPE svg PUBLIC "-//W3C//DTD SVG 1.1//EN" "http://www.w3.org/Graphics/SVG/1.1/DTD/svg11.dtd">
<svg version="1.1" id="Layer_1" xmlns="http://www.w3.org/2000/svg" xmlns:xlink="http://www.w3.org/1999/xlink" x="0px" y="0px"
	 width="2048px" height="2048px" viewBox="0 0 2048 2048" enable-background="new 0 0 2048 2048" xml:space="preserve">
<path d="M1881.6,998.8c0-55.4-20.9-106.1-58.8-142.7c-27.7-26.8-78.1-58.6-160.4-58.6h-278.2c12.3-51.8,18.6-105.3,14.1-158.6
	c-13.4-160.2-133-385.2-316.7-385.2c-114.3,0-175.6,101.1-175.6,205.3v266.9L784.3,905.7H147.7L256,1664h541.6v-45.8l76.8,48.8h652
	c99.6,0,194.7-63.8,219.5-162.5c6.3-24.9,7.7-50.4,4.4-75.9c-1.6-11.8-4.2-23.5-7.7-35c62.1-43.1,103.4-114.4,103.4-190.7
	c0-22.3-3.5-44-10.2-64.2C1864.8,1098.2,1881.6,1048.6,1881.6,998.8z M1663.5,1122.4c114,0,109.8,215.6-105.5,215.6
	c-0.6,0-1.1,0-1.7,0c149.2,80.2,86.3,217.8-29.8,217.8H905.9l-108.3-66.6v-409.8l216.6-320.2V459c0-69.7,29.5-97,67.2-97
	c50,0,114.7,47.8,144.9,108c53,105.6,111.7,190.6,6.6,435.8h429.4C1837.6,905.7,1779.9,1122.4,1663.5,1122.4z"/>
</svg>
