<?xml version="1.0" encoding="utf-8"?>
<!-- Generator: Adobe Illustrator 17.1.0, SVG Export Plug-In . SVG Version: 6.00 Build 0)  -->
<!DOCTYPE svg PUBLIC "-//W3C//DTD SVG 1.1//EN" "http://www.w3.org/Graphics/SVG/1.1/DTD/svg11.dtd">
<svg version="1.1" id="Layer_1" xmlns="http://www.w3.org/2000/svg" xmlns:xlink="http://www.w3.org/1999/xlink" x="0px" y="0px"
	 width="2048px" height="2048px" viewBox="0 0 2048 2048" enable-background="new 0 0 2048 2048" xml:space="preserve">
<path id="headphones" fill="#010101" d="M1029.9,124.4c-420.9,0-762.1,350-762.1,781.7c0,161.2,47.5,310.9,129,435.3v97.5
	c0,116.3,122.2,213.5,248.6,224.9v-567.1c-60.9,5.5-138.9,30.9-179,68.5c-35.6-81.6-53.6-170.2-53.6-259.2
	c0-338.4,273.4-634.8,617.1-634.8c343.7,0,617.1,296.4,617.1,634.8c0,89-18,177.6-53.6,259.2c-40.1-37.5-119.1-63.7-180-69.3V1664
	c126.4-11.4,249.6-108.6,249.6-224.9v-97.6c81.5-124.4,129-274.2,129-435.3C1792,474.4,1450.8,124.4,1029.9,124.4z M773.8,1663h-75
	v-566.9h75V1663z M1360.4,1663h-75v-566.9h75V1663z"/>
</svg>
