<?xml version="1.0" encoding="utf-8"?>
<!-- Generator: Adobe Illustrator 17.1.0, SVG Export Plug-In . SVG Version: 6.00 Build 0)  -->
<!DOCTYPE svg PUBLIC "-//W3C//DTD SVG 1.1//EN" "http://www.w3.org/Graphics/SVG/1.1/DTD/svg11.dtd">
<svg version="1.1" id="Layer_1" xmlns="http://www.w3.org/2000/svg" xmlns:xlink="http://www.w3.org/1999/xlink" x="0px" y="0px"
	 width="2048px" height="2048px" viewBox="0 0 2048 2048" enable-background="new 0 0 2048 2048" xml:space="preserve">
<path id="key_1_" fill="#010101" d="M1344,384c-247.4,0-448,200.6-448,448c0,57.1,10.7,111.7,30.1,161.9L256,1664v128h384v-128h128
	v-128h128v-128h128l128-128l30.1-30.1c50.2,19.5,104.8,30.1,161.9,30.1c247.4,0,448-200.6,448-448C1792,584.6,1591.4,384,1344,384z
	 M1344,960c-70.7,0-128-57.3-128-128s57.3-128,128-128s128,57.3,128,128S1414.7,960,1344,960z"/>
</svg>
