<?xml version="1.0" encoding="utf-8"?>
<!-- Generator: Adobe Illustrator 17.1.0, SVG Export Plug-In . SVG Version: 6.00 Build 0)  -->
<!DOCTYPE svg PUBLIC "-//W3C//DTD SVG 1.1//EN" "http://www.w3.org/Graphics/SVG/1.1/DTD/svg11.dtd">
<svg version="1.1" id="Layer_1" xmlns="http://www.w3.org/2000/svg" xmlns:xlink="http://www.w3.org/1999/xlink" x="0px" y="0px"
	 width="2048px" height="2048px" viewBox="0 0 2048 2048" enable-background="new 0 0 2048 2048" xml:space="preserve">
<path id="maps_1_" d="M1358,256c-77.1-103.9-200.7-171.2-340-171.2s-262.9,67.3-340,171.2H256v1408h1536V256H1358z M384,384h229.4
	c-12,39.2-18.4,80.7-18.4,123.8c0,35.5,4.4,70,12.6,103H384V384z M722,1536H384v-352h338V1536z M722,1120H384V674.8h245.3
	c22,51,53.7,96.9,92.8,135.2V1120z M1009,216.8c147.5,0,267,119.6,267,267s-119.6,267-267,267s-267-119.6-267-267
	S861.6,216.8,1009,216.8z M895.4,1120H786V905.7C823.6,973,861.4,1048.5,895.4,1120z M786,1536v-352h139.3
	c56,121.6,95.7,217.9,95.7,217.9s47-116.1,110.4-254.4l108.8-38.9l250.8,427.4H786z M1664,1536h-98.7l-263.7-449.4L1664,956.9V1536z
	 M1664,888.9l-494.3,177c40.7-85,85.1-171.4,126.9-239.7c47.2-41.3,85.1-92.9,110.2-151.3H1664V888.9z M1664,610.8h-235.5
	c8.3-33,12.6-67.5,12.6-103c0-43.1-6.4-84.6-18.4-123.8H1664V610.8z M910.7,582.1c-26.3-26.3-40.7-61.2-40.7-98.3
	c0-37.1,14.5-72,40.7-98.3c26.3-26.3,61.2-40.7,98.3-40.7c37.1,0,72,14.5,98.3,40.7c26.3,26.3,40.7,61.2,40.7,98.3
	c0,37.1-14.5,72-40.7,98.3c-26.3,26.3-61.2,40.7-98.3,40.7C971.9,622.8,937,608.4,910.7,582.1z"/>
</svg>
