<?xml version="1.0" encoding="utf-8"?>
<!-- Generator: Adobe Illustrator 17.1.0, SVG Export Plug-In . SVG Version: 6.00 Build 0)  -->
<!DOCTYPE svg PUBLIC "-//W3C//DTD SVG 1.1//EN" "http://www.w3.org/Graphics/SVG/1.1/DTD/svg11.dtd">
<svg version="1.1" id="Layer_1" xmlns="http://www.w3.org/2000/svg" xmlns:xlink="http://www.w3.org/1999/xlink" x="0px" y="0px"
	 width="2048px" height="2048px" viewBox="0 0 2048 2048" enable-background="new 0 0 2048 2048" xml:space="preserve">
<path stroke="#FFFFFF" stroke-miterlimit="10" d="M1664,766v130h-130.1v170.7c0,186.1-150.9,339.3-337,339.3H1152v258h128v128H768
	v-128h128v-258h-48.2c-186.1,0-337-153.2-337-339.3V896H384l0-130h256l-1.2,300.7c0,55.8,21.7,108.3,61.2,147.8
	c39.5,39.5,92,61.2,147.8,61.2h349.1c55.8,0,108.3-21.7,147.8-61.2c39.5-39.5,63.3-92,63.3-147.8V766H1664z M768.8,859.4V510.6
	c0-141.4,114.2-256,255-256s255,114.6,255,256v339.3C1166.4,967.2,886,964.9,768.8,859.4z M1089,447c0,34.8,28.2,63,63,63
	c34.8,0,63-28.2,63-63c0-34.8-28.2-63-63-63C1117.2,384,1089,412.2,1089,447z M1089,703c0,34.8,28.2,63,63,63c34.8,0,63-28.2,63-63
	c0-34.8-28.2-63-63-63C1117.2,640,1089,668.2,1089,703z M833,447c0,34.8,28.2,63,63,63c34.8,0,63-28.2,63-63c0-34.8-28.2-63-63-63
	C861.2,384,833,412.2,833,447z M833,703c0,34.8,28.2,63,63,63c34.8,0,63-28.2,63-63c0-34.8-28.2-63-63-63
	C861.2,640,833,668.2,833,703z M839.6,969.9c-24.6-8.4-47.1-18.5-67-29.8c20.8,120.4,125.4,211.9,251.2,211.9
	c129.9,0,237.1-97.4,253-223.5C1144.7,1003.1,983.3,1019.3,839.6,969.9C815,961.4,894.2,988.7,839.6,969.9z"/>
</svg>
