<?xml version="1.0" encoding="utf-8"?>
<!-- Generator: Adobe Illustrator 17.1.0, SVG Export Plug-In . SVG Version: 6.00 Build 0)  -->
<!DOCTYPE svg PUBLIC "-//W3C//DTD SVG 1.1//EN" "http://www.w3.org/Graphics/SVG/1.1/DTD/svg11.dtd">
<svg version="1.1" id="Layer_1" xmlns="http://www.w3.org/2000/svg" xmlns:xlink="http://www.w3.org/1999/xlink" x="0px" y="0px"
	 width="2048px" height="2048px" viewBox="0 0 2048 2048" enable-background="new 0 0 2048 2048" xml:space="preserve">
<path id="music_1_" d="M1663.9,256L640,384v842c-23.6-8.4-60.3-13.8-86.8-13.8c-125.2,0-226.7,101.5-226.7,226.7
	s101.5,226.7,226.7,226.7c122.8,0,211.7-97.7,215.4-219.6L768,1408V768l768-128v452.5c-23.6-8.3-72.2-9.9-98.7-9.9
	c-125.2,0-226.7,101.5-226.7,226.7c0,125.2,101.5,226.7,226.7,226.7c125.2,0,226.7-101.5,226.7-226.7
	C1664,1306.7,1663.9,256,1663.9,256z"/>
</svg>
