<?xml version="1.0" encoding="utf-8"?>
<!-- Generator: Adobe Illustrator 17.1.0, SVG Export Plug-In . SVG Version: 6.00 Build 0)  -->
<!DOCTYPE svg PUBLIC "-//W3C//DTD SVG 1.1//EN" "http://www.w3.org/Graphics/SVG/1.1/DTD/svg11.dtd">
<svg version="1.1" id="Layer_1" xmlns="http://www.w3.org/2000/svg" xmlns:xlink="http://www.w3.org/1999/xlink" x="0px" y="0px"
	 width="2048px" height="2048px" viewBox="0 0 2048 2048" enable-background="new 0 0 2048 2048" xml:space="preserve">
<g>
	<path d="M391.2,1792C391.1,1792,391.1,1792,391.2,1792c-34.1,0-64.6-10.6-88.1-30.7c-24.9-21.2-40.6-51.2-45.3-86.9
		c-16.3-122.1,86.6-232.3,174.7-301.3c106.2-83.1,231.9-139.9,359.1-182.5c21.6-46.8,42.7-96.7,63-148.8
		c29.1-74.9,53.3-139.6,73.5-196.9c-38.2-76-68.8-152-89.1-221.3c-24.5-83.6-32.7-151.8-24.1-202.6c8.4-50,26.6-90.3,54.1-119.6
		c27.6-29.4,63.4-45.6,100.9-45.6c20.8,0,41.2,4.8,60.8,14.3c18.9,9.2,36.1,22.5,51,39.3c30.5,34.4,49,80.6,53.6,133.7
		c4.3,49.4-1.5,109-17.5,182c-12.8,58.4-32.4,126.8-59.9,208.5c50.1,91.2,108.3,175,170.2,245.1c151.8-33.1,261.1-48.5,342.3-48.5
		c72.2,0,122.9,12.3,159.7,38.8c28.4,20.5,62.3,60.2,62.3,133.6c0,119.3-77.2,225.3-203.2,225.3c-64.2,0-140.3-25.1-226.1-74.6
		c-58.5-33.7-116.5-79.4-172.9-136c-105.7,24.5-212.8,48.3-316.6,79.8c-38.6,78.7-79.1,149.8-120.7,211.6
		c-42,62.5-85.5,116.1-129.1,159.2C562.8,1728.4,481.1,1792,391.2,1792z M704.4,1359c-124,54.2-200.1,110.8-244.9,153.5
		c-32.6,31-57.5,63-72,92.5c-22.4,45.8-5.2,59.7,3.6,59.7c0,0,0,0,0,0C442.6,1664.7,565.2,1597,704.4,1359z M1338.5,1185.9
		c26.7,21.5,53.4,40,80.1,55.4c85.3,49.2,139.8,59.5,170.4,59.5c74.2,0,119.6-91.1,75.5-125.6c-8.8-6.9-33.3-17.4-94.3-17.4
		C1513.6,1157.8,1437.3,1167,1338.5,1185.9z M940,1147.6c51.4-12.8,103.8-22.8,154.4-38.3c-30.8-39.2-61.3-84.3-89.2-128.5
		C985.1,1037,963.2,1092.6,940,1147.6z M969.8,383.3c-17.7,0-32.7,23.2-38.9,60.6c-6.8,40.3,9.9,125.6,51.9,231.7
		c28-99,39.2-170.5,34.9-220.4c-2.1-23.8-9.6-44.2-21.4-57.5C988.2,388.5,978.5,383.3,969.8,383.3z"/>
</g>
</svg>
