<?xml version="1.0" encoding="utf-8"?>
<!-- Generator: Adobe Illustrator 17.1.0, SVG Export Plug-In . SVG Version: 6.00 Build 0)  -->
<!DOCTYPE svg PUBLIC "-//W3C//DTD SVG 1.1//EN" "http://www.w3.org/Graphics/SVG/1.1/DTD/svg11.dtd">
<svg version="1.1" id="Layer_1" xmlns="http://www.w3.org/2000/svg" xmlns:xlink="http://www.w3.org/1999/xlink" x="0px" y="0px"
	 width="2048px" height="2048px" viewBox="0 0 2048 2048" enable-background="new 0 0 2048 2048" xml:space="preserve">
<path id="phone" d="M665.6,952.7c-13,57.8-444.7,95.2-526.3,0c-23.8-51,39.4-131.2,123.8-217.6c130.3-121.6,327.3-220.9,749.1-223
	V512h7h7v0.1c421.8,2.1,618.8,101.5,749.1,223c84.4,86.4,138.1,191.9,123.8,217.6c-56.7,102-485,81.6-526.3,0
	c-6.8-13.4-9.5-14.4-16-22c-70.5-82.4-197-83.7-337.6-83.7c-140.6,0-267.1,1.4-337.6,83.7C675.1,938.2,665.6,952.7,665.6,952.7z
	 M125.8,1102.2l3.4,305.9c61.2,54.4,384.1,88.4,594.3-8v-308.3C554.1,1187.2,217.5,1187.2,125.8,1102.2z M1322.3,1091.9v308.3
	c210.2,96.4,533.1,62.4,594.3,8l3.4-305.9C1828.2,1187.2,1491.7,1187.2,1322.3,1091.9z"/>
</svg>
