<?xml version="1.0" encoding="utf-8"?>
<!-- Generator: Adobe Illustrator 17.1.0, SVG Export Plug-In . SVG Version: 6.00 Build 0)  -->
<!DOCTYPE svg PUBLIC "-//W3C//DTD SVG 1.1//EN" "http://www.w3.org/Graphics/SVG/1.1/DTD/svg11.dtd">
<svg version="1.1" id="Layer_1" xmlns="http://www.w3.org/2000/svg" xmlns:xlink="http://www.w3.org/1999/xlink" x="0px" y="0px"
	 width="2048px" height="2048px" viewBox="0 0 2048 2048" enable-background="new 0 0 2048 2048" xml:space="preserve">
<path d="M1152,896H896V128h256V896z M1400.2,354.3l-131.8,219.6C1432,662.9,1536,837.9,1536,1024c0,279.3-232.7,512-512,512
	c-279.3,0-512-232.7-512-512c0-186.1,104-361.1,267.6-450.1L647.8,354.3C413.9,486,256,736.5,256,1024c0,424.2,343.8,768,768,768
	c424.2,0,768-343.8,768-768C1792,736.5,1634.1,486,1400.2,354.3z"/>
</svg>
