<?xml version="1.0" encoding="utf-8"?>
<!-- Generator: Adobe Illustrator 17.1.0, SVG Export Plug-In . SVG Version: 6.00 Build 0)  -->
<!DOCTYPE svg PUBLIC "-//W3C//DTD SVG 1.1//EN" "http://www.w3.org/Graphics/SVG/1.1/DTD/svg11.dtd">
<svg version="1.1" id="Layer_1" xmlns="http://www.w3.org/2000/svg" xmlns:xlink="http://www.w3.org/1999/xlink" x="0px" y="0px"
	 width="2048px" height="2048px" viewBox="0 0 2048 2048" enable-background="new 0 0 2048 2048" xml:space="preserve">
<path id="refresh_2_" d="M1025.4,1536c-282.8,0-512-229.2-512-512s229.2-512,512-512c172.3,0,324.7,85.1,417.5,215.6l-167.5,112.1
	l516.6,214l-1.1-559.1l-135.2,90.5c-138.8-199-369.3-329.2-630.3-329.2c-424.2,0-768,343.8-768,768c0,424.2,343.8,768,768,768
	c179.6,0,344.8-61.7,475.6-164.9L1319.7,1443C1236.4,1501.6,1134.9,1536,1025.4,1536z"/>
</svg>
