<?xml version="1.0" encoding="utf-8"?>
<!-- Generator: Adobe Illustrator 17.1.0, SVG Export Plug-In . SVG Version: 6.00 Build 0)  -->
<!DOCTYPE svg PUBLIC "-//W3C//DTD SVG 1.1//EN" "http://www.w3.org/Graphics/SVG/1.1/DTD/svg11.dtd">
<svg version="1.1" id="Layer_1" xmlns="http://www.w3.org/2000/svg" xmlns:xlink="http://www.w3.org/1999/xlink" x="0px" y="0px"
	 width="2048px" height="2048px" viewBox="0 0 2048 2048" enable-background="new 0 0 2048 2048" xml:space="preserve">
<g>
	<path d="M1793.7,1788.4h-256c0-768-512-1280-1280-1280v-256C1153.7,252.4,1793.7,892.4,1793.7,1788.4z"/>
	<path d="M1281.7,1788.4h-256c0-512-256-768-768-768v-256C897.7,764.4,1281.7,1148.4,1281.7,1788.4z"/>
	<path d="M256,1534.6c0,142.2,115.3,257.4,257.4,257.4c142.2,0,257.4-115.3,257.4-257.4c0-142.2-115.2-257.4-257.4-257.4
		C371.3,1277.1,256,1392.4,256,1534.6z"/>
</g>
</svg>
