<?xml version="1.0" encoding="utf-8"?>
<!-- Generator: Adobe Illustrator 17.1.0, SVG Export Plug-In . SVG Version: 6.00 Build 0)  -->
<!DOCTYPE svg PUBLIC "-//W3C//DTD SVG 1.1//EN" "http://www.w3.org/Graphics/SVG/1.1/DTD/svg11.dtd">
<svg version="1.1" id="Layer_1" xmlns="http://www.w3.org/2000/svg" xmlns:xlink="http://www.w3.org/1999/xlink" x="0px" y="0px"
	 width="2048px" height="2048px" viewBox="0 0 2048 2048" enable-background="new 0 0 2048 2048" xml:space="preserve">
<path id="search_1_" d="M1738.4,1186.6c242.2-242.2,242.2-634.8,0-876.9c-242.2-242.2-634.8-242.2-876.9,0
	c-179.8,179.8-226.1,442.4-139,664.9l-473.9,473.9l351.9,351.9l474.3-474.3C1297,1412.5,1559,1366,1738.4,1186.6z M1006.2,1043
	c-165.3-165.3-165.3-433.2,0-598.5c165.3-165.3,433.2-165.3,598.5,0c165.3,165.3,165.3,433.2,0,598.5
	C1439.4,1208.3,1171.5,1208.3,1006.2,1043z"/>
</svg>
