<?xml version="1.0" encoding="utf-8"?>
<!-- Generator: Adobe Illustrator 17.1.0, SVG Export Plug-In . SVG Version: 6.00 Build 0)  -->
<!DOCTYPE svg PUBLIC "-//W3C//DTD SVG 1.1//EN" "http://www.w3.org/Graphics/SVG/1.1/DTD/svg11.dtd">
<svg version="1.1" id="Layer_1" xmlns="http://www.w3.org/2000/svg" xmlns:xlink="http://www.w3.org/1999/xlink" x="0px" y="0px"
	 width="2048px" height="2048px" viewBox="0 0 2048 2048" enable-background="new 0 0 2048 2048" xml:space="preserve">
<path id="search_-_detail" d="M1287.5,448c43.2,0,85.1,8.5,124.6,25.2c38.1,16.1,72.3,39.2,101.7,68.6
	c29.4,29.4,52.4,63.6,68.6,101.7c16.7,39.5,25.2,81.4,25.2,124.6h-128c0-105.9-86.1-192-192-192V448z M1745.8,1186.6
	c-179.4,179.4-441.4,225.9-663.6,139.5l-474.3,474.3L256,1448.5l473.9-473.9c-87.1-222.5-40.8-485.2,139-664.9
	c242.2-242.2,634.8-242.2,876.9,0C1988,551.8,1988,944.4,1745.8,1186.6z M820.7,1197.3l-90.5-90.5l-256,256l90.5,90.5L820.7,1197.3z
	 M1612.2,444.5c-165.3-165.3-433.2-165.3-598.5,0c-165.3,165.3-165.3,433.2,0,598.5c165.3,165.3,433.2,165.3,598.5,0
	C1777.5,877.7,1777.5,609.7,1612.2,444.5z"/>
</svg>
