<?xml version="1.0" encoding="utf-8"?>
<!-- Generator: Adobe Illustrator 17.1.0, SVG Export Plug-In . SVG Version: 6.00 Build 0)  -->
<!DOCTYPE svg PUBLIC "-//W3C//DTD SVG 1.1//EN" "http://www.w3.org/Graphics/SVG/1.1/DTD/svg11.dtd">
<svg version="1.1" id="Layer_1" xmlns="http://www.w3.org/2000/svg" xmlns:xlink="http://www.w3.org/1999/xlink" x="0px" y="0px"
	 width="2048px" height="2048px" viewBox="0 0 2048 2048" enable-background="new 0 0 2048 2048" xml:space="preserve">
<path d="M1792,1118.5v-192l-229.5-95.6c-6.4-18-13.1-35.4-21.4-52.5l92.6-230.6L1498,412l-228.6,94.1c-17.4-8.4-35.2-15.6-53.6-22.1
	l-97.3-228h-192l-94.9,227.2c-19.1,6.8-37.5,13.9-55.7,22.5l-228.2-91.7L412,549.8l93,226.1c-9,18.6-16.3,37.5-23.2,57L256,929.5
	v192l225.9,94.1c6.9,19.5,14.4,38.4,23.4,57l-91.3,227.6L549.8,1636l226.7-93.4c18.2,8.6,36.8,15.6,55.9,22.1l97.1,227.2h192
	l95.1-228.4c18.2-6.8,36.2-13.9,53.4-22.1l230.2,92.2L1636,1498l-94.5-229.1c8.1-17.2,14.6-34.7,21-52.5L1792,1118.5z M1022.5,1312
	c-159,0-288-129-288-288s129-288,288-288s288,129,288,288S1181.5,1312,1022.5,1312z"/>
</svg>
