<?xml version="1.0" encoding="utf-8"?>
<!-- Generator: Adobe Illustrator 17.1.0, SVG Export Plug-In . SVG Version: 6.00 Build 0)  -->
<!DOCTYPE svg PUBLIC "-//W3C//DTD SVG 1.1//EN" "http://www.w3.org/Graphics/SVG/1.1/DTD/svg11.dtd">
<svg version="1.1" id="Layer_1" xmlns="http://www.w3.org/2000/svg" xmlns:xlink="http://www.w3.org/1999/xlink" x="0px" y="0px"
	 width="2048px" height="2048px" viewBox="0 0 2048 2048" enable-background="new 0 0 2048 2048" xml:space="preserve">
<path id="outline_1_" d="M1024,438.7l120.9,372.2l21.6,66.3h69.7h391.4L1311,1107.3l-56.4,41l21.6,66.3l120.9,372.2l-316.6-230.1
	l-56.4-41l-56.4,41l-316.6,230.1l120.9-372.2l21.6-66.3l-56.4-41L420.4,877.2h391.4h69.7l21.6-66.3L1024,438.7 M1024,128
	L811.8,781.2H124.9L680.6,1185l-212.3,653.2l555.7-403.7l555.7,403.7L1367.4,1185l555.7-403.7h-686.9L1024,128L1024,128z"/>
</svg>
