<?xml version="1.0" encoding="utf-8"?>
<!-- Generator: Adobe Illustrator 17.1.0, SVG Export Plug-In . SVG Version: 6.00 Build 0)  -->
<!DOCTYPE svg PUBLIC "-//W3C//DTD SVG 1.1//EN" "http://www.w3.org/Graphics/SVG/1.1/DTD/svg11.dtd">
<svg version="1.1" id="Layer_1" xmlns="http://www.w3.org/2000/svg" xmlns:xlink="http://www.w3.org/1999/xlink" x="0px" y="0px"
	 width="2048px" height="2048px" viewBox="0 0 2048 2048" enable-background="new 0 0 2048 2048" xml:space="preserve">
<g>
	<path d="M1639.9,608.9c-14,1.3-26.2,3.1-37.2,5.3c-90.6-134.1-261.7-198.3-423.2-146C1039.3,513.5,932.1,648.3,912.9,785
		c-253-203.1-599.2-160.8-613-141.2c-100.3-15.2-78.1,32.1-82.5,60.7c-45-12.7-125.4,54.3-60,67.1
		c141.4,15.6,257.9,270.7,271.7,334.3c22.5,48.2,49.4,86.1,79.2,116.1c-99.8,3.9-221.8-22-318.7-140.7
		c-38.5-55.6-68.2,62.9-60.2,87.6c-4,26.7,401.5,701.6,989.3,615.5c412-94.3,464.5-347.6,465.2-663.4
		c64.2-76.4,107.8-175.8,100.7-296.2l0,0c38.3-21.6,70-53.3,98.4-91.2c48.3-54.5,137.2-28.9,137.2-60.2
		C1900.1,635.7,1746.6,593.3,1639.9,608.9z M1362.4,711.4c-38.8,12.6-80.6-8.7-93.2-47.6c-12.4-38.9,8.8-80.6,47.7-93.1
		c38.9-12.6,80.6,8.7,93.1,47.6C1422.6,657.2,1401.3,698.9,1362.4,711.4z"/>
</g>
</svg>
