<?xml version="1.0" encoding="utf-8"?>
<!-- Generator: Adobe Illustrator 17.1.0, SVG Export Plug-In . SVG Version: 6.00 Build 0)  -->
<!DOCTYPE svg PUBLIC "-//W3C//DTD SVG 1.1//EN" "http://www.w3.org/Graphics/SVG/1.1/DTD/svg11.dtd">
<svg version="1.1" id="Layer_1" xmlns="http://www.w3.org/2000/svg" xmlns:xlink="http://www.w3.org/1999/xlink" x="0px" y="0px"
	 width="2048px" height="2048px" viewBox="0 0 2048 2048" enable-background="new 0 0 2048 2048" xml:space="preserve">
<path id="help_1_" fill="#010101" d="M1024,256c-424.2,0-768,343.8-768,768c0,424.2,343.8,768,768,768s768-343.8,768-768
	C1792,599.8,1448.2,256,1024,256z M1123.4,1604.3H871.5v-254.5h251.9V1604.3z M1404,920.5c-15.2,33.8-33.8,63.5-56,89.2
	c-22.2,25.7-46.5,47.6-72.7,65.7s-51,34.3-74.2,48.4c-13.1,9.1-26.5,16.9-40.2,23.4c-13.6,6.6-23.5,14.9-29.5,24.9
	c-3.1,5-5.1,10.6-6.2,16.6c-1,6.1-2,12.1-3.1,18.1c-1,7-1,14.1,0,21.2H871.5v-45.3c0-37.3,6.6-70,19.7-98.2
	c13.1-28.2,29.6-53.1,49.3-74.8c19.7-21.7,41.2-40.3,64.5-55.9c23.2-15.6,44.5-29.5,63.7-41.6c20.2-13.1,37.2-24.4,50.8-34
	c13.6-9.6,24.5-18.6,32.6-27.2c8.1-8.6,13.9-16.6,17.4-24.2c3.5-7.5,5.3-15.9,5.3-24.9c0-26.2-9.3-48.9-28-68
	c-18.6-19.1-41-28.7-67.2-28.7c-30.3,0-55.9,9.6-77.1,28.7c-21.2,19.1-31.7,41.8-31.7,68H719.9c0-48.4,9.6-93.4,28.7-135.2
	c19.1-41.7,44.8-78.4,77.1-110.1c32.2-31.7,70-56.8,113.4-75.4c43.3-18.6,89.7-27.9,139-27.9h1.5c48.3,0,93.4,9.3,135.1,27.9
	c41.7,18.6,78.4,43.7,110.1,75.4c31.7,31.7,56.6,68.4,74.7,110.1c18.1,41.7,27.2,86.8,27.2,135.2
	C1426.7,847.2,1419.1,886.7,1404,920.5z"/>
</svg>
