<?xml version="1.0" encoding="utf-8"?>
<!-- Generator: Adobe Illustrator 17.1.0, SVG Export Plug-In . SVG Version: 6.00 Build 0)  -->
<!DOCTYPE svg PUBLIC "-//W3C//DTD SVG 1.1//EN" "http://www.w3.org/Graphics/SVG/1.1/DTD/svg11.dtd">
<svg version="1.1" id="Layer_1" xmlns="http://www.w3.org/2000/svg" xmlns:xlink="http://www.w3.org/1999/xlink" x="0px" y="0px"
	 width="2048px" height="2048px" viewBox="0 0 2048 2048" enable-background="new 0 0 2048 2048" xml:space="preserve">
<path id="usb" d="M1664,510h-256v256h60.5v184.9L1152,1170V514h128l-256-384L768,514h128v788l-315.9-218.7V875
	c36.5-22.6,60.8-62.9,60.8-109c0-70.7-57.3-128-128-128c-70.7,0-128,57.3-128,128c0,48.7,27.2,91,67.2,112.7v271.7l432.2,299.1
	c-70,45.7-116.3,124.7-116.3,214.5c0,141.4,114.6,256,256,256s256-114.6,256-256c0-94.8-51.5-177.5-128-221.7v-116.6l444.5-307.7
	V766h67.5V510z"/>
</svg>
