<?xml version="1.0" encoding="utf-8"?>
<!-- Generator: Adobe Illustrator 17.1.0, SVG Export Plug-In . SVG Version: 6.00 Build 0)  -->
<!DOCTYPE svg PUBLIC "-//W3C//DTD SVG 1.1//EN" "http://www.w3.org/Graphics/SVG/1.1/DTD/svg11.dtd">
<svg version="1.1" id="Layer_1" xmlns="http://www.w3.org/2000/svg" xmlns:xlink="http://www.w3.org/1999/xlink" x="0px" y="0px"
	 width="2048px" height="2048px" viewBox="0 0 2048 2048" enable-background="new 0 0 2048 2048" xml:space="preserve">
<path id="video_1_" d="M256,256v1408h1536V256H256z M512,1536H384v-128h128V1536z M512,1280H384v-128h128V1280z M512,1024H384V896
	h128V1024z M512,768H384V640h128V768z M512,512H384V384h128V512z M1408,1536H640V384h768V1536z M1664,1536h-128v-128h128V1536z
	 M1664,1280h-128v-128h128V1280z M1664,1024h-128V896h128V1024z M1664,768h-128V640h128V768z M1664,512h-128V384h128V512z
	 M1280,1024l-384,256V768L1280,1024z"/>
</svg>
