<?xml version="1.0" encoding="utf-8"?>
<!-- Generator: Adobe Illustrator 17.1.0, SVG Export Plug-In . SVG Version: 6.00 Build 0)  -->
<!DOCTYPE svg PUBLIC "-//W3C//DTD SVG 1.1//EN" "http://www.w3.org/Graphics/SVG/1.1/DTD/svg11.dtd">
<svg version="1.1" id="Layer_1" xmlns="http://www.w3.org/2000/svg" xmlns:xlink="http://www.w3.org/1999/xlink" x="0px" y="0px"
	 width="2048px" height="2048px" viewBox="0 0 2048 2048" enable-background="new 0 0 2048 2048" xml:space="preserve">
<path id="full_2_" d="M896,256v1536l-384-384H256V640h256L896,256z M1879.4,649.7c-50-118.1-121.5-224.2-212.6-315.3
	c-40.9-40.9-84.8-77.8-131.5-110.6V422c164.8,153.1,268,371.7,268,613.8s-103.2,460.7-268,613.8V1848
	c46.7-32.8,90.6-69.7,131.5-110.6c91.1-91.1,162.6-197.2,212.6-315.3c51.8-122.4,78-252.3,78-386.2S1931.2,772,1879.4,649.7z
	 M1556.1,777c-33.5-79.2-81.4-150.3-142.5-211.4c-40.6-40.6-85.8-75.5-134.7-104.1v189.2c107.5,93.8,175.5,231.7,175.5,385.2
	s-68,291.4-175.5,385.2v189.2c49-28.6,94.1-63.5,134.7-104.1c61.1-61.1,109-132.2,142.5-211.4c34.7-82,52.3-169.1,52.3-258.9
	S1590.8,859,1556.1,777z M1240.7,847c-24.4-57.8-59.4-109.6-103.9-154.2c-33.7-33.7-71.5-61.9-113-84.2V798
	c62.3,60.2,101,144.6,101,237.8s-38.8,177.6-101,237.8V1463c41.4-22.3,79.3-50.5,113-84.2c44.5-44.5,79.5-96.4,103.9-154.2
	c25.3-59.8,38.1-123.4,38.1-188.8S1266,906.9,1240.7,847z"/>
</svg>
