<?xml version="1.0" encoding="utf-8"?>
<!-- Generator: Adobe Illustrator 17.1.0, SVG Export Plug-In . SVG Version: 6.00 Build 0)  -->
<!DOCTYPE svg PUBLIC "-//W3C//DTD SVG 1.1//EN" "http://www.w3.org/Graphics/SVG/1.1/DTD/svg11.dtd">
<svg version="1.1" id="Layer_1" xmlns="http://www.w3.org/2000/svg" xmlns:xlink="http://www.w3.org/1999/xlink" x="0px" y="0px"
	 width="2048px" height="2048px" viewBox="0 0 2048 2048" enable-background="new 0 0 2048 2048" xml:space="preserve">
<path id="half_1_" d="M896,128v1536l-384-384H256V512h256L896,128z M1556.1,649c-33.5-79.2-81.4-150.3-142.5-211.4
	c-40.6-40.6-85.8-75.5-134.7-104.1v189.2c107.5,93.8,175.5,231.7,175.5,385.2s-68,291.4-175.5,385.2v189.2
	c49-28.6,94.1-63.5,134.7-104.1c61.1-61.1,109-132.2,142.5-211.4c34.7-82,52.3-169.1,52.3-258.9S1590.8,731,1556.1,649z M1240.7,719
	c-24.4-57.8-59.4-109.6-103.9-154.2c-33.7-33.7-71.5-61.9-113-84.2V670c62.3,60.2,101,144.6,101,237.8s-38.8,177.6-101,237.8V1335
	c41.4-22.3,79.3-50.5,113-84.2c44.5-44.5,79.5-96.4,103.9-154.2c25.3-59.8,38.1-123.4,38.1-188.8S1266,778.9,1240.7,719z"/>
</svg>
