<?xml version="1.0" encoding="utf-8"?>
<!-- Generator: Adobe Illustrator 17.1.0, SVG Export Plug-In . SVG Version: 6.00 Build 0)  -->
<!DOCTYPE svg PUBLIC "-//W3C//DTD SVG 1.1//EN" "http://www.w3.org/Graphics/SVG/1.1/DTD/svg11.dtd">
<svg version="1.1" id="Layer_1" xmlns="http://www.w3.org/2000/svg" xmlns:xlink="http://www.w3.org/1999/xlink" x="0px" y="0px"
	 width="2048px" height="2048px" viewBox="0 0 2048 2048" enable-background="new 0 0 2048 2048" xml:space="preserve">
<path id="strong" fill="#010101" d="M1920,896l-127.9,127.9c-423.5-423.5-1112.6-423.5-1536.1,0L128,896
	C621.9,402.1,1425.9,401.9,1920,896L1920,896z M1663.9,1152.1c-352.9-352.9-927.1-353-1280-0.1L512,1280
	c282.2-282.2,741.7-282.3,1024,0L1663.9,1152.1L1663.9,1152.1z M1408,1408c-211.7-211.7-556.3-211.7-768,0l128.1,128.1
	c141.2-141.2,370.7-141.2,511.9,0L1408,1408L1408,1408z M1152,1664c-70.7-70.7-185.3-70.7-256,0l128,128L1152,1664z"/>
</svg>
